<?xml version="1.0" encoding="UTF-8"?>
<svg width="110px" height="110px" viewBox="0 0 110 110" version="1.1" xmlns="http://www.w3.org/2000/svg" xmlns:xlink="http://www.w3.org/1999/xlink">
    <!-- Generator: Sketch 48.2 (47327) - http://www.bohemiancoding.com/sketch -->
    <title>Group</title>
    <desc>Created with Sketch.</desc>
    <defs></defs>
    <g id="web---payment-aborted" stroke="none" stroke-width="1" fill="none" fill-rule="evenodd" transform="translate(-105.000000, -108.000000)">
        <g id="Group" transform="translate(105.000000, 108.000000)">
            <circle id="Oval-7-Copy" fill="#FAEDDD" cx="55" cy="55" r="55"></circle>
            <g id="wallet" transform="translate(36.000000, 21.000000)" fill="#000000" fill-rule="nonzero">
                <path d="M56.7902443,11.7116661 L36.0273371,0.47040995 C34.0577332,-0.596278592 31.349528,0.224251056 30.2826592,2.19352221 L18.1367688,24.7580875 L3.36473991,24.7580875 C1.47720289,24.7580875 0,26.2350409 0,28.1222591 L0,34.0300726 L0,64.6358284 C0,66.5230466 1.47720289,68 3.36473991,68 L50.5531655,68 C52.4407025,68 53.9179054,66.5230466 53.9179054,64.6358284 L53.9179054,56.1023201 L55.3130415,56.1023201 C56.0516429,56.1023201 56.6261107,55.5279493 56.6261107,54.7894727 L56.6261107,45.0251698 C56.6261107,44.2866932 56.0516429,43.7123224 55.3130415,43.7123224 L53.9179054,43.7123224 L53.9179054,34.1121255 C53.9179054,32.5531192 52.7689698,31.1582188 51.2917669,30.8300069 L58.5136477,17.4553737 C59.5805165,15.4040495 58.841915,12.8604076 56.7902443,11.7116661 Z M42.0182155,6.70643528 L29.0516568,30.747954 L25.3586496,30.747954 L39.2279434,5.22948191 L42.0182155,6.70643528 Z M32.6625972,3.42431668 C33.0729313,2.68584 34.0577332,2.35762814 34.7963347,2.76789297 L36.8480054,3.91663447 L22.4042438,30.747954 L17.8905683,30.747954 L32.6625972,3.42431668 Z M2.54407164,28.0402061 C2.54407164,27.7940472 2.87233895,27.3837824 3.28267308,27.3837824 L16.6595659,27.3837824 L14.8540957,30.665901 L3.28267308,30.665901 C3.0364726,30.665901 2.79027212,30.665901 2.54407164,30.747954 L2.54407164,28.0402061 Z M51.2097001,64.6358284 C51.2097001,65.0460933 50.8814328,65.3743051 50.4710987,65.3743051 L3.28267308,65.3743051 C2.87233895,65.3743051 2.54407164,65.0460933 2.54407164,64.6358284 L2.54407164,34.1121255 C2.54407164,33.7018607 2.87233895,33.3736488 3.28267308,33.3736488 L15.674764,33.3736488 L20.9270409,33.3736488 L30.5288597,33.3736488 L48.9938958,33.3736488 L50.3890318,33.3736488 C50.799366,33.3736488 51.1276333,33.7018607 51.1276333,34.1121255 L51.1276333,43.7123224 L46.1215568,43.7123224 C43.9057525,43.7123224 42.1823491,45.5174876 42.1823491,47.6508647 L42.1823491,52.1637778 C42.1823491,54.3792078 43.9878193,56.1023201 46.1215568,56.1023201 L51.2097001,56.1023201 L51.2097001,64.6358284 Z M53.8358386,46.3380173 L53.9179054,46.3380173 L53.9179054,53.4766252 L53.8358386,53.4766252 L46.1215568,53.4766252 C45.3829554,53.4766252 44.8084876,52.9022545 44.8084876,52.1637778 L44.8084876,47.6508647 C44.8084876,46.912388 45.3829554,46.3380173 46.1215568,46.3380173 L53.8358386,46.3380173 Z M56.1337097,16.1425262 L48.2552943,30.747954 L32.0060626,30.747954 L44.3160866,8.01928271 L55.4771751,14.0912021 C56.2978434,14.419414 56.5440439,15.4040495 56.1337097,16.1425262 Z" id="Shape"></path>
                <path d="M51.3910938,14.7858965 L50.7483699,14.4786501 C49.1415601,13.6337227 46.9723669,14.2482154 46.0886216,15.7844472 L45.2852167,17.2438674 C44.8835142,18.0119833 44.7228333,18.9337224 45.0441952,19.7786498 C45.2852167,20.6235773 45.9279406,21.3148816 46.7313455,21.6989396 L47.3740694,22.006186 C47.8561123,22.2366207 48.4184957,22.3902439 48.9808792,22.3902439 C50.266327,22.3902439 51.3910938,21.6989396 52.0338177,20.7003889 L52.8372226,19.2409687 C53.6406275,17.6279253 52.9979036,15.630824 51.3910938,14.7858965 Z M50.5073484,18.0887949 L49.7039436,19.5482151 C49.4629221,19.932273 48.9005387,20.0858962 48.4988362,19.8554614 L47.8561123,19.4714035 C47.6954313,19.3945919 47.5347504,19.1641571 47.4544099,19.0105339 C47.3740694,18.7800992 47.3740694,18.5496644 47.5347504,18.3960412 L48.3381552,16.936621 C48.4988362,16.7061863 48.8201982,16.4757515 49.1415601,16.4757515 C49.3022411,16.4757515 49.3825816,16.4757515 49.5432626,16.5525631 L50.1859865,16.8598094 C50.5073484,17.1670558 50.6680294,17.6279253 50.5073484,18.0887949 Z" id="Shape"></path>
            </g>
            <g id="information" transform="translate(17.000000, 34.000000)">
                <path d="M24.6920143,1.86257235 L44.9038894,33.9336569 C45.4928145,34.8681305 45.2126919,36.1030892 44.2782183,36.6920143 C43.9589468,36.8932259 43.5892614,37 43.2118751,37 L2.78812488,37 C1.68355538,37 0.788124878,36.1045695 0.788124878,35 C0.788124878,34.6226137 0.894898986,34.2529283 1.09611061,33.9336569 L21.3079857,1.86257235 C21.8969108,0.928098674 23.1318695,0.64797617 24.0663431,1.23690123 C24.3189976,1.3961294 24.5327861,1.6099179 24.6920143,1.86257235 Z" id="Triangle" fill="#FF9C00"></path>
                <path d="M22.5818182,12.3333333 C21.6594592,12.3333333 20.9090909,13.07136 20.9090909,13.9785178 C20.9090909,14.8848533 21.6594592,15.6222222 22.5818182,15.6222222 C23.5041772,15.6222222 24.2545455,14.8848533 24.2545455,13.9785178 C24.2545455,13.07136 23.5041772,12.3333333 22.5818182,12.3333333 Z" id="Shape" fill="#FFFFFF" fill-rule="nonzero"></path>
                <path d="M22.5818182,18.0888889 C21.6580267,18.0888889 20.9090909,18.7791444 20.9090909,19.6305556 L20.9090909,28.8805556 C20.9090909,29.7319667 21.6580267,30.4222222 22.5818182,30.4222222 C23.5056097,30.4222222 24.2545455,29.7319667 24.2545455,28.8805556 L24.2545455,19.6305556 C24.2545455,18.7791444 23.5056097,18.0888889 22.5818182,18.0888889 Z" id="Shape" fill="#FFFFFF" fill-rule="nonzero"></path>
            </g>
        </g>
    </g>
</svg>