<?xml version="1.0" encoding="UTF-8"?>
<svg width="110px" height="110px" viewBox="0 0 110 110" version="1.1" xmlns="http://www.w3.org/2000/svg" xmlns:xlink="http://www.w3.org/1999/xlink">
    <!-- Generator: Sketch 48.2 (47327) - http://www.bohemiancoding.com/sketch -->
    <title>Group 2</title>
    <desc>Created with Sketch.</desc>
    <defs></defs>
    <g id="web---payment-success" stroke="none" stroke-width="1" fill="none" fill-rule="evenodd" transform="translate(-105.000000, -108.000000)">
        <g id="Group-2" transform="translate(105.000000, 108.000000)">
            <circle id="Oval-7-Copy-2" fill="#ECFADD" cx="55" cy="55" r="55"></circle>
            <g id="wallet" transform="translate(29.000000, 20.000000)" fill="#000000" fill-rule="nonzero">
                <path d="M57.7527909,11.8838965 L36.6379699,0.477327744 C34.634983,-0.605047395 31.8808759,0.227548866 30.7959246,2.22577989 L18.4441716,25.1221771 L3.4217694,25.1221771 C1.50224022,25.1221771 0,26.6208503 0,28.5358217 L0,34.5305148 L0,65.5863553 C0,67.5013267 1.50224022,69 3.4217694,69 L51.4099988,69 C53.329528,69 54.8317682,67.5013267 54.8317682,65.5863553 L54.8317682,56.9273542 L56.2505506,56.9273542 C57.0016708,56.9273542 57.5858753,56.3445368 57.5858753,55.5952002 L57.5858753,45.6873047 C57.5858753,44.9379681 57.0016708,44.3551507 56.2505506,44.3551507 L54.8317682,44.3551507 L54.8317682,34.6137744 C54.8317682,33.0318415 53.6633591,31.6164279 52.1611189,31.2833894 L59.5054045,17.7120703 C60.5903557,15.6305797 59.8392356,13.0495313 57.7527909,11.8838965 Z M42.7303886,6.80505933 L29.5440578,31.2001298 L25.7884572,31.2001298 L39.8928237,5.30638606 L42.7303886,6.80505933 Z M33.2162005,3.47467428 C33.6334895,2.72533765 34.634983,2.39229914 35.3861031,2.80859727 L37.4725478,3.97423204 L22.7839767,31.2001298 L18.1937983,31.2001298 L33.2162005,3.47467428 Z M2.5871915,28.4525621 C2.5871915,28.2027832 2.92102266,27.7864851 3.33831161,27.7864851 L16.9419314,27.7864851 L15.10586,31.1168701 L3.33831161,31.1168701 C3.08793824,31.1168701 2.83756487,31.1168701 2.5871915,31.2001298 L2.5871915,28.4525621 Z M52.0776611,65.5863553 C52.0776611,66.0026535 51.74383,66.335692 51.326541,66.335692 L3.33831161,66.335692 C2.92102266,66.335692 2.5871915,66.0026535 2.5871915,65.5863553 L2.5871915,34.6137744 C2.5871915,34.1974763 2.92102266,33.8644378 3.33831161,33.8644378 L15.9404379,33.8644378 L21.2817365,33.8644378 L31.046298,33.8644378 L49.8243008,33.8644378 L51.2430832,33.8644378 C51.6603722,33.8644378 51.9942033,34.1974763 51.9942033,34.6137744 L51.9942033,44.3551507 L46.9032781,44.3551507 C44.6499178,44.3551507 42.8973042,46.1868625 42.8973042,48.3516127 L42.8973042,52.9308922 C42.8973042,55.1789021 44.7333756,56.9273542 46.9032781,56.9273542 L52.0776611,56.9273542 L52.0776611,65.5863553 Z M54.7483104,47.0194587 L54.8317682,47.0194587 L54.8317682,54.2630462 L54.7483104,54.2630462 L46.9032781,54.2630462 C46.152158,54.2630462 45.5679535,53.6802288 45.5679535,52.9308922 L45.5679535,48.3516127 C45.5679535,47.6022761 46.152158,47.0194587 46.9032781,47.0194587 L54.7483104,47.0194587 Z M57.0851285,16.3799163 L49.0731807,31.2001298 L32.5485382,31.2001298 L45.0672067,8.13721334 L56.4174662,14.2984257 C57.2520441,14.6314642 57.5024175,15.6305797 57.0851285,16.3799163 Z" id="Shape"></path>
                <path d="M52.2621293,15.0033362 L51.6085118,14.6915715 C49.9744679,13.8342186 47.7685088,14.457748 46.8697846,16.0165714 L46.0527627,17.4974537 C45.6442518,18.2768654 45.4808474,19.2121595 45.8076561,20.0695123 C46.0527627,20.9268652 46.7063803,21.6283358 47.5234022,22.0180416 L48.1770197,22.3298063 C48.6672329,22.5636299 49.2391482,22.7195122 49.8110636,22.7195122 C51.1182986,22.7195122 52.2621293,22.0180416 52.9157468,21.0048064 L53.7327688,19.5239241 C54.5497907,17.8871595 53.8961732,15.8606891 52.2621293,15.0033362 Z M51.3634052,18.3548066 L50.5463833,19.8356888 C50.3012767,20.2253947 49.7293614,20.381277 49.3208504,20.1474535 L48.6672329,19.7577477 C48.5038285,19.6798065 48.3404241,19.445983 48.2587219,19.2901006 C48.1770197,19.0562771 48.1770197,18.8224536 48.3404241,18.6665712 L49.157446,17.185689 C49.3208504,16.9518655 49.6476592,16.7180419 49.9744679,16.7180419 C50.1378723,16.7180419 50.2195745,16.7180419 50.3829789,16.7959831 L51.0365964,17.1077478 C51.3634052,17.4195125 51.5268096,17.8871595 51.3634052,18.3548066 Z" id="Shape"></path>
            </g>
            <g id="Group" transform="translate(10.000000, 33.000000)">
                <circle id="Oval-6" fill="#00AD23" cx="21" cy="21" r="21"></circle>
                <path d="M33.838484,11.2859976 C33.0993741,10.5125106 31.9010773,10.5125106 31.1619674,11.2859976 L16.2801945,26.0456098 L11.4660517,21.0069301 C10.7270333,20.2333473 9.5286449,20.2333473 8.78962653,21.0069301 C8.05051665,21.7805128 8.05051665,23.0346996 8.78962653,23.8082824 L14.9420734,30.2476861 C15.3115826,30.6345254 15.7960258,30.8278971 16.2803775,30.8278971 C16.7647292,30.8278971 17.2490809,30.6345254 17.6186816,30.2476861 L33.838484,14.0873499 C34.5775939,13.3137671 34.5775939,12.0595804 33.838484,11.2859976 Z" id="Shape" fill="#FFFFFF" fill-rule="nonzero"></path>
            </g>
        </g>
    </g>
</svg>